HIERARCHY
ROOT Hips
{
     OFFSET 1.88212 96.90440 -13.34250
     CHANNELS 6 Xposition Yposition Zposition Zrotation Xrotation Yrotation
     JOINT Spine
     {
          OFFSET 0.00000 11.89050 0.00000
          CHANNELS 3 Zrotation Xrotation Yrotation
          JOINT Spine1
          {
               OFFSET -0.00000 25.65740 0.12766
               CHANNELS 3 Zrotation Xrotation Yrotation
               JOINT HEad
               {
                    OFFSET 0.00000 8.73416 0.01134
                    CHANNELS 3 Zrotation Xrotation Yrotation
                    End Site
                    {
                         OFFSET -0.29000 12.77420 2.51395
                    }
               }
               JOINT LeftShoulder1
               {
                    OFFSET 8.99000 -0.36225 -0.22000
                    CHANNELS 3 Zrotation Xrotation Yrotation
                    JOINT LeftArm
                    {
                         OFFSET 10.28270 -0.00338 0.32212
                         CHANNELS 3 Zrotation Xrotation Yrotation
                         JOINT LeftForeArm
                         {
                              OFFSET 32.76690 0.09914 -1.42434
                              CHANNELS 3 Zrotation Xrotation Yrotation
                              JOINT LeftHand
                              {
                                   OFFSET 27.56430 0.08536 1.02216
                                   CHANNELS 3 Zrotation Xrotation Yrotation
                                   End Site
                                   {
                                        OFFSET 16.74430 -0.60000 1.50291
                                   }
                              }
                         }
                    }
               }
               JOINT RightShoulder
               {
                    OFFSET -8.99000 -0.36225 -0.22000
                    CHANNELS 3 Zrotation Xrotation Yrotation
                    JOINT RightArm
                    {
                         OFFSET -10.28270 -0.00338 0.32212
                         CHANNELS 3 Zrotation Xrotation Yrotation
                         JOINT RightForeArm
                         {
                              OFFSET -32.89710 0.09914 -1.42434
                              CHANNELS 3 Zrotation Xrotation Yrotation
                              JOINT RightHand
                              {
                                   OFFSET -27.49210 0.08536 1.02216
                                   CHANNELS 3 Zrotation Xrotation Yrotation
                                   End Site
                                   {
                                        OFFSET -16.63120 -0.60000 1.50291
                                   }
                              }
                         }
                    }
               }
          }
     }
     JOINT LeftUpLeg
     {
          OFFSET 8.94580 -8.66707 0.10165
          CHANNELS 3 Zrotation Xrotation Yrotation
          JOINT LeftLeg
          {
               OFFSET 0.00000 -44.42270 1.37270
               CHANNELS 3 Zrotation Xrotation Yrotation
               JOINT LeftFoot
               {
                    OFFSET -0.25355 -42.09240 -1.46059
                    CHANNELS 3 Zrotation Xrotation Yrotation
                    JOINT LeftToes
                    {
                         OFFSET -0.04000 -4.41509 8.49910
                         CHANNELS 3 Zrotation Xrotation Yrotation
                         End Site
                         {
                              OFFSET 0.08000 -0.04745 9.77979
                         }
                    }
               }
          }
     }
     JOINT RightUpLeg
     {
          OFFSET -8.94580 -8.66707 0.10165
          CHANNELS 3 Zrotation Xrotation Yrotation
          JOINT RightLeg
          {
               OFFSET 0.00000 -44.42270 1.37270
               CHANNELS 3 Zrotation Xrotation Yrotation
               JOINT RightFoot
               {
                    OFFSET 0.25355 -42.09240 -1.46059
                    CHANNELS 3 Zrotation Xrotation Yrotation
                    JOINT RightToes
                    {
                         OFFSET 0.04000 -4.41509 8.49910
                         CHANNELS 3 Zrotation Xrotation Yrotation
                         End Site
                         {
                              OFFSET -0.08000 -0.13745 9.77979
                         }
                    }
               }
          }
     }
}
MOTION
Frames: 12
Frame Time: 0.01667
100.92828 86.84625 -103.65119 -8.67552 -0.81315 -42.51366 7.97391 13.55301 0.21750 -0.08229 0.09960 0.06101 -1.66404 20.24406 4.77814 -17.25912 10.57025 18.23621 -102.53567 -56.76518 -84.49180 -39.93195 57.17027 -103.59991 7.23721 8.48068 2.15393 1.50559 18.76959 25.43192 69.84399 -26.97970 71.75915 28.03399 47.40550 111.12920 -6.88248 13.21642 -0.49068 0.90908 -27.98592 18.99776 373.30515 41.95085 -370.67310 7.19269 -0.66560 0.39155 -14.15876 -4.64094 -5.95164 -18.75875 -9.68254 -1.67006 -303.28836 63.36190 330.47858 14.12794 -0.00271 -0.19920 -0.07343 -17.31985 -0.63202 
103.19446 89.49029 -103.02774 -4.59152 -1.24814 -46.36558 3.34191 12.41505 3.02856 0.00027 0.01125 0.02525 -2.60682 22.11939 4.75486 -16.65281 8.99194 17.88259 -101.24707 -57.11523 -82.65279 -38.48027 57.75113 -104.99874 7.15990 8.79260 1.26721 2.44613 17.31570 25.31240 68.46437 -27.10737 69.64836 28.22192 47.28032 112.02583 -6.79759 12.02958 -0.59923 -4.73452 -27.83070 15.43814 376.41312 34.79803 -373.24466 -2.71339 -0.73438 0.29251 5.32932 -2.17362 -13.60596 -16.68973 -6.77124 -4.55982 -315.22900 62.17742 340.17795 6.96224 -0.19169 -0.05903 -2.65070 -29.00302 -2.30054 
105.30095 91.41954 -102.82253 -1.15460 -1.75187 -49.77902 -0.62688 11.16652 5.47387 0.00126 0.00901 0.02067 -3.37788 23.43916 4.88001 -9.74580 7.32940 6.33112 -107.81111 -67.95515 -82.96796 -37.39120 58.34767 -106.64442 7.51322 8.55923 1.26977 8.94636 11.50388 13.89601 63.48967 -15.65495 66.74965 28.29782 47.09926 112.43545 -6.54615 12.80804 0.37306 -9.62063 -27.68066 10.66485 379.19623 28.69200 -374.78180 -12.61304 -0.78392 0.14590 7.84822 6.27040 -15.31798 -14.14087 -2.93287 -7.62606 -332.40341 56.17700 352.41187 -0.65909 -0.34196 0.19561 0.08186 -38.18981 -8.79488 
107.14413 92.74757 -102.93217 1.96107 -2.33513 -53.09388 -4.30209 9.73548 7.76136 0.00156 0.00749 0.00736 -4.25107 24.29863 5.42770 -5.01280 5.27227 -0.98305 -114.00411 -75.26212 -84.85839 -36.52422 58.94054 -108.52778 7.74735 8.51110 1.18756 13.14289 6.69128 6.91942 60.21906 -8.10606 65.17465 28.48732 46.82101 112.55560 -6.40714 13.11643 1.15831 -14.21712 -27.47656 5.45560 381.61871 22.90679 -375.57339 -21.91580 -0.75481 0.04027 10.62409 11.69982 -12.70903 -11.69748 0.77748 -10.78244 -344.45035 48.07884 360.73010 -7.44281 -0.27726 0.18338 6.05233 -42.50555 -15.34298 
109.10150 93.41634 -103.23663 4.70920 -2.93525 -56.31677 -7.62868 8.20191 9.86226 0.00096 0.00201 0.00204 -5.16076 24.66029 6.34859 -1.52414 3.55947 -5.39508 -116.89512 -78.90066 -85.27293 -35.08417 58.47625 -110.22845 7.85197 8.36392 1.08820 15.98643 3.18963 2.50050 58.08706 -3.27411 64.41202 28.73243 46.55445 112.55431 -6.40717 13.21278 1.69608 -18.25652 -27.21743 -0.03130 384.13867 17.54328 -376.03415 -30.79181 -0.72723 -0.04638 11.61097 11.24981 -10.78950 -9.32354 4.30903 -13.97819 -353.28366 38.36769 366.21707 -11.95120 -0.21833 0.13719 4.77664 -45.90892 -20.56362 
110.95106 93.72633 -103.60454 7.12119 -3.52268 -59.44827 -10.61982 6.58765 11.77145 -0.00050 -0.00150 -0.00098 -6.02077 24.52602 7.60364 1.20104 2.38597 -7.74543 -114.31126 -79.62364 -81.56103 -33.23342 57.05703 -111.55717 7.85625 8.11426 1.06406 18.02188 0.94272 -0.38137 57.43787 -1.39321 63.76830 28.81588 46.26749 112.29375 -5.73409 12.07288 2.64422 -21.38222 -26.94328 -5.51238 385.75272 13.01568 -376.05380 -30.14588 0.01061 -0.00944 4.99580 4.87534 -8.45767 -7.03198 7.69323 -17.17976 -359.30618 27.67565 369.96133 -14.80903 -0.14817 0.09515 -0.54184 -48.23245 -23.18403 
112.60512 93.30615 -103.97261 8.61498 -4.26567 -62.65584 -13.39188 5.55078 13.30851 -0.01226 0.01601 -0.02777 -6.99768 24.42406 8.96747 3.33079 1.66983 -8.49645 -109.45898 -78.23953 -76.47505 -32.04886 55.83270 -110.28214 8.51501 8.82848 0.53246 18.43393 1.31604 -5.07843 59.99224 1.04954 65.94481 28.54174 46.36786 110.72695 -4.36765 12.97046 -1.33926 -23.14189 -26.03934 -10.46029 387.15424 9.15062 -374.89722 -28.87728 0.09951 -0.00885 0.64777 2.01269 -4.13586 -4.97149 11.48738 -19.88980 -362.36893 16.06036 371.31796 -14.78698 -0.01954 -0.01182 -2.30562 -47.15685 -21.05216 
114.13788 92.82601 -104.24252 9.22387 -5.07279 -65.81618 -15.91945 5.07571 14.41646 -0.01034 0.01743 -0.02899 -7.98679 24.17923 10.72309 4.96187 1.37881 -7.89787 -105.49899 -75.19736 -72.89227 -31.50532 54.84875 -106.75145 9.75726 10.34903 -1.05525 19.02532 1.92067 -7.84021 62.49303 2.69134 67.19233 27.55441 45.53050 108.55484 -1.80584 15.14496 -7.24031 -23.56039 -24.49875 -14.87134 388.36099 5.87757 -372.63577 -27.04910 0.11875 -0.01890 0.13696 4.85057 3.43329 -3.16150 15.68993 -22.29515 -363.28842 4.04301 371.26355 -12.98356 0.08390 -0.09695 -2.06577 -43.64295 -15.74902 
115.58789 92.21140 -104.43707 8.98918 -5.85564 -68.83928 -18.17352 5.18236 15.07021 -0.00748 0.01748 -0.02850 -9.03247 23.76399 12.86461 6.16967 1.39205 -6.29809 -102.78443 -72.17348 -71.03519 -31.42940 53.76991 -103.33802 11.02037 11.79483 -2.48425 19.67081 2.69063 -9.02234 64.95144 3.73496 67.75406 25.74476 43.88865 106.11524 2.19385 18.41343 -13.47636 -22.79678 -22.35065 -18.82757 389.30292 3.18430 -369.37842 -24.66621 0.12701 -0.03338 -2.15608 7.94190 9.87297 -1.58163 20.24523 -24.53084 -362.49219 -7.88351 370.42740 -10.27077 0.15199 -0.15908 -1.49774 -38.28929 -9.04236 
116.90366 91.47662 -104.56670 6.34435 -6.35081 -71.05386 -19.12580 7.10232 15.18950 0.00343 0.00147 0.00429 -10.18674 23.71618 15.10944 5.97102 2.30783 -4.07993 -102.03222 -70.10995 -72.00130 -31.46414 53.19205 -100.78285 12.20218 13.04447 -3.67764 20.04373 3.86391 -6.78546 67.24487 2.65900 67.07452 21.88539 39.55825 102.51083 5.85337 11.28708 -0.19201 -19.58305 -18.36275 -22.11562 388.41531 1.99424 -363.26215 -21.01420 0.07170 -0.07616 -6.64471 10.00576 12.61852 -0.37202 25.73498 -26.08606 -358.72855 -18.11771 367.18967 -7.57797 0.21221 -0.20961 -0.06366 -29.58939 0.39367 
118.06096 90.65182 -104.65172 1.82478 -6.42509 -72.29936 -18.92092 10.59792 14.64654 0.00327 0.00469 0.00944 -11.49335 23.92969 17.45483 5.69985 3.44986 -1.88599 -102.93729 -69.20698 -74.13052 -31.56829 53.12238 -98.71313 12.74611 13.28063 -4.59385 20.17149 5.32200 -4.74155 69.26423 2.41789 66.63742 16.25696 33.85358 98.82671 10.48220 25.45107 -11.68909 -14.81723 -12.97746 -25.38734 385.70715 1.27927 -355.26611 -16.34582 -0.03626 -0.09472 -9.50412 12.84419 12.31537 0.62831 31.77554 -27.15384 -352.70392 -24.51695 364.82547 -13.38384 -0.27706 0.27355 4.51197 -23.97296 6.65768 
119.07024 89.85825 -104.71333 -2.19243 -6.39085 -73.22020 -18.76114 13.78275 13.95719 0.00309 0.00448 0.00910 -12.71425 24.07572 19.45254 5.47340 4.43527 -0.06032 -105.32213 -69.03947 -77.32991 -31.68984 53.48233 -96.92168 13.38291 13.48712 -5.45367 20.14817 6.60203 -3.11100 71.06934 2.82704 66.36151 9.18986 27.53054 95.62927 9.49901 15.86165 6.64583 -9.80586 -8.60053 -28.47718 381.35739 0.30015 -346.25455 -10.85919 -0.16486 -0.09093 -12.06615 15.46487 9.69202 0.16692 36.68354 -26.65143 -347.96347 -27.30562 362.90305 -14.65323 -0.04254 0.06991 4.87830 -20.88291 11.12178 
